<?xml version="1.0" encoding="utf-8"?>
<!-- Generator: Adobe Illustrator 17.0.1, SVG Export Plug-In . SVG Version: 6.00 Build 0)  -->
<!DOCTYPE svg PUBLIC "-//W3C//DTD SVG 1.0//EN" "http://www.w3.org/TR/2001/REC-SVG-20010904/DTD/svg10.dtd">
<svg version="1.0" xmlns="http://www.w3.org/2000/svg" xmlns:xlink="http://www.w3.org/1999/xlink" x="0px" y="0px" width="169px"
	 height="240px" viewBox="0 0 169 240" enable-background="new 0 0 169 240" xml:space="preserve">
<g id="Capa_3" display="none">
	<polyline display="inline" fill="none" stroke="#89C2C2" stroke-width="6" stroke-miterlimit="10" points="88,158 88,88 158,88 	
		"/>
	<polyline display="inline" fill="none" stroke="#89C2C2" stroke-width="6" stroke-miterlimit="10" points="227,174 227,244 
		157,244 	"/>
	<rect x="105.667" y="82.667" display="inline" fill="none" width="130.667" height="144.667"/>
	<text transform="matrix(1 0 0 1 105.6663 191.1154)" opacity="0.5" font-family="'NewsGothicBT-RomanCondensed'" font-size="150">s</text>
	<rect x="151" y="109.333" display="inline" fill="none" width="130.667" height="144.667"/>
	
		<text transform="matrix(1 0 0 1 150.9997 217.7821)" opacity="0.5" stroke="#000000" stroke-miterlimit="10" font-family="'NewsGothicBT-RomanCondensed'" font-size="150">c</text>
	<polygon display="inline" fill="#89C2C2" stroke="#89C2C2" stroke-miterlimit="10" points="86.166,246.5 222.375,85.5 
		228.875,85.5 94.5,246.5 	"/>
</g>
<g id="Capa_4" display="none">
	<polyline display="inline" fill="none" stroke="#000000" stroke-width="6" stroke-miterlimit="10" points="317,151 317,81 387,81 	
		"/>
	<polyline display="inline" fill="none" stroke="#000000" stroke-width="6" stroke-miterlimit="10" points="456,167 456,237 
		386,237 	"/>
	<rect x="334.667" y="75.667" display="inline" fill="none" width="130.667" height="144.667"/>
	
		<text transform="matrix(1 0 0 1 334.6663 184.1154)" display="inline" font-family="'NewsGothicBT-RomanCondensed'" font-size="150">s</text>
	<rect x="380" y="102.333" display="inline" fill="none" width="130.667" height="144.667"/>
	
		<text transform="matrix(1 0 0 1 379.9997 210.7821)" display="inline" stroke="#000000" stroke-miterlimit="10" font-family="'NewsGothicBT-RomanCondensed'" font-size="150">c</text>
	<polyline display="inline" points="459,78 321,240 315,240 315,240 453.417,78 	"/>
</g>
<g id="Capa_5" display="none">
	<g display="inline">
		<g>
			<path fill="#FF6B84" d="M127.22,188.906c-5.304-0.288-9.809-2.13-13.517-5.526c-4.054-3.71-6.592-8.764-7.617-15.161l9.888-2.271
				c0.634,4.493,2.185,8.02,4.651,10.583c2.465,2.563,5.457,3.845,8.972,3.845c2.344,0,4.387-0.537,6.129-1.613"/>
		</g>
		<g>
			<path fill="#FF6B84" d="M140.655,172.766c0.245-1.056,0.368-2.19,0.368-3.401c0-5.371-4.688-11.23-14.062-17.578l-0.22-0.146
				c-7.617-5.224-12.598-9.459-14.941-12.708c-2.344-3.247-3.516-6.896-3.516-10.95c0-5.614,1.842-10.265,5.53-13.953
				c3.686-3.686,8.313-5.53,13.879-5.53c5.81,0,10.51,1.514,14.099,4.541c3.589,3.028,6.188,7.69,7.8,13.989l-8.862,2.71
				c-1.074-4.199-2.662-7.372-4.761-9.521c-2.1-2.148-4.713-3.223-7.836-3.223c-2.93,0-5.31,0.892-7.141,2.673
				c-1.831,1.783-2.747,4.09-2.747,6.921c0,4.541,4.565,9.864,13.696,15.967c3.906,2.637,6.933,4.761,9.082,6.372
				c3.467,2.637,6.03,5.566,7.69,8.789c0.609,1.183,1.107,2.423,1.493,3.718"/>
		</g>
	</g>
	<g display="inline">
		<g>
			<path fill="#FF6B84" d="M197.25,165.792l10.741-0.086c0,0-0.178-10.616-4.803-16.171c0,0-4.021-6.798-12.021-8.263l-8.417,9.813
				C182.75,151.083,196.958,146.208,197.25,165.792z"/>
			<path fill="#FF6B84" d="M176.083,158.806L162.203,175c0,0-0.62,17,1.797,27.729c0,0,3.583,20.938,22.083,20.438
				c0,0,21.583,2.083,22.333-28.333L198,194.917c0,0,0.001,18.377-12.375,18.083c-10.542-0.25-11.5-17.054-11.5-17.054
				S171.917,173.958,176.083,158.806z"/>
		</g>
		<g>
			<path opacity="0.3" fill="#FF6B84" d="M197.25,165.792l10.741-0.086c0,0-0.178-10.616-4.803-16.171c0,0-4.021-6.798-12.021-8.263
				l-8.417,9.813C182.75,151.083,196.958,146.208,197.25,165.792z"/>
			<path opacity="0.3" fill="#FF6B84" d="M176.083,158.806L162.203,175c0,0-0.62,17,1.797,27.729c0,0,3.583,20.938,22.083,20.438
				c0,0,21.583,2.083,22.333-28.333L198,194.917c0,0,0.001,18.377-12.375,18.083c-10.542-0.25-11.5-17.054-11.5-17.054
				S171.917,173.958,176.083,158.806z"/>
		</g>
	</g>
	<polyline display="inline" fill="none" stroke="#FFFFFF" stroke-width="6" stroke-miterlimit="10" points="298,163 298,93 368,93 	
		"/>
	<polyline display="inline" fill="none" stroke="#FFFFFF" stroke-width="6" stroke-miterlimit="10" points="437,179 437,249 
		367,249 	"/>
	<polyline display="inline" fill="#FFFFFF" stroke="#FFFFFF" stroke-miterlimit="10" points="440,90.25 302,252.5 296,252.5 
		296,252.5 434.417,90.375 	"/>
	<g display="inline">
		<g>
			<path fill="#FFFFFF" d="M337.22,193.906c-5.304-0.288-9.809-2.13-13.517-5.526c-4.054-3.71-6.592-8.764-7.617-15.161l9.888-2.271
				c0.634,4.493,2.185,8.02,4.651,10.583c2.465,2.563,5.457,3.845,8.972,3.845c2.344,0,4.387-0.537,6.129-1.613"/>
		</g>
		<g>
			<path fill="#FFFFFF" d="M350.655,177.766c0.245-1.056,0.368-2.19,0.368-3.401c0-5.371-4.688-11.23-14.062-17.578l-0.22-0.146
				c-7.617-5.224-12.598-9.459-14.941-12.708c-2.344-3.247-3.516-6.896-3.516-10.95c0-5.614,1.842-10.265,5.53-13.953
				c3.686-3.686,8.313-5.53,13.879-5.53c5.81,0,10.51,1.514,14.099,4.541c3.589,3.028,6.188,7.69,7.8,13.989l-8.862,2.71
				c-1.074-4.199-2.662-7.372-4.761-9.521c-2.1-2.148-4.713-3.223-7.836-3.223c-2.93,0-5.31,0.892-7.141,2.673
				c-1.831,1.783-2.747,4.09-2.747,6.921c0,4.541,4.565,9.864,13.696,15.967c3.906,2.637,6.933,4.761,9.082,6.372
				c3.467,2.637,6.03,5.566,7.69,8.789c0.609,1.183,1.107,2.423,1.493,3.718"/>
		</g>
	</g>
	<g display="inline">
		<g>
			<path fill="#FFFFFF" d="M407.25,170.792l10.741-0.086c0,0-0.178-10.616-4.803-16.171c0,0-4.021-6.798-12.021-8.263l-8.417,9.813
				C392.75,156.083,406.958,151.208,407.25,170.792z"/>
			<path fill="#FFFFFF" d="M386.083,163.806L372.203,180c0,0-0.62,17,1.797,27.729c0,0,3.583,20.938,22.083,20.438
				c0,0,21.583,2.083,22.333-28.333L408,199.917c0,0,0.001,18.377-12.375,18.083c-10.542-0.25-11.5-17.054-11.5-17.054
				S381.917,178.958,386.083,163.806z"/>
		</g>
		<g>
			<path fill="none" stroke="#FFFFFF" stroke-miterlimit="10" d="M407.25,170.792l10.741-0.086c0,0-0.178-10.616-4.803-16.171
				c0,0-4.021-6.798-12.021-8.263l-8.417,9.813C392.75,156.083,406.958,151.208,407.25,170.792z"/>
			<path fill="none" stroke="#FFFFFF" stroke-miterlimit="10" d="M386.083,163.806L372.203,180c0,0-0.62,17,1.797,27.729
				c0,0,3.583,20.938,22.083,20.438c0,0,21.583,2.083,22.333-28.333L408,199.917c0,0,0.001,18.377-12.375,18.083
				c-10.542-0.25-11.5-17.054-11.5-17.054S381.917,178.958,386.083,163.806z"/>
		</g>
	</g>
	<rect x="73" y="261.5" display="inline" fill="none" width="152" height="41"/>
	
		<text transform="matrix(1 0 0 1 73 285.5742)" display="inline" fill="#FF6B84" stroke="#FF6B84" stroke-width="0.25" stroke-miterlimit="10" font-family="'Microsoft-Yi-Baiti'" font-size="45">Samudio</text>
	<rect x="86.906" y="294.5" display="inline" fill="none" width="165.716" height="43"/>
	
		<text transform="matrix(1 0 0 1 86.9063 318.5742)" display="inline" fill="#FF6B84" stroke="#FF6B84" stroke-width="0.25" stroke-miterlimit="10" font-family="'Microsoft-Yi-Baiti'" font-size="45">Creations</text>
	<rect x="-176" y="261.5" display="inline" fill="none" width="152" height="41"/>
	
		<text transform="matrix(1 0 0 1 -176 285.5742)" display="inline" stroke="#000000" stroke-width="0.25" stroke-miterlimit="10" font-family="'Microsoft-Yi-Baiti'" font-size="45">Samudio</text>
	<rect x="-162.094" y="294.5" display="inline" fill="none" width="165.716" height="43"/>
	
		<text transform="matrix(1 0 0 1 -162.0938 318.5742)" display="inline" stroke="#000000" stroke-width="0.25" stroke-miterlimit="10" font-family="'Microsoft-Yi-Baiti'" font-size="45">Creations</text>
</g>
<g id="Capa_6" display="none">
	<polyline display="inline" fill="none" stroke="#000000" stroke-width="6" stroke-miterlimit="10" points="-162,161 -162,95 
		-88,95 	"/>
	<polyline display="inline" fill="none" stroke="#000000" stroke-width="6" stroke-miterlimit="10" points="-23,177 -23,251 
		-89,251 	"/>
	<g display="inline">
		<g>
			<path d="M-120.78,191.906c-5.304-0.288-9.809-2.13-13.517-5.526c-4.054-3.71-6.592-8.764-7.617-15.161l9.888-2.271
				c0.634,4.493,2.185,8.02,4.651,10.583c2.465,2.563,5.457,3.845,8.972,3.845c2.344,0,4.387-0.537,6.129-1.613"/>
		</g>
		<g>
			<path d="M-107.345,175.766c0.245-1.056,0.368-2.19,0.368-3.401c0-5.371-4.688-11.23-14.062-17.578l-0.22-0.146
				c-7.617-5.224-12.598-9.459-14.941-12.708c-2.344-3.247-3.516-6.896-3.516-10.95c0-5.614,1.842-10.265,5.53-13.953
				c3.686-3.686,8.313-5.53,13.879-5.53c5.81,0,10.51,1.514,14.099,4.541c3.589,3.028,6.188,7.69,7.8,13.989l-8.862,2.71
				c-1.074-4.199-2.662-7.372-4.761-9.521c-2.1-2.148-4.713-3.223-7.836-3.223c-2.93,0-5.31,0.892-7.141,2.673
				c-1.831,1.783-2.747,4.09-2.747,6.921c0,4.541,4.565,9.864,13.696,15.967c3.906,2.637,6.933,4.761,9.082,6.372
				c3.467,2.637,6.03,5.566,7.69,8.789c0.609,1.183,1.107,2.423,1.493,3.718"/>
		</g>
	</g>
	<g display="inline">
		<g>
			<path d="M-55.75,176.792l10.741-0.086c0,0-0.178-10.616-4.803-16.171c0,0-4.021-6.798-12.021-8.263l-8.417,9.813
				C-70.25,162.083-56.042,157.208-55.75,176.792z"/>
			<path d="M-76.917,169.806L-90.797,186c0,0-0.62,17,1.797,27.729c0,0,3.583,20.938,22.083,20.438c0,0,21.583,2.083,22.333-28.333
				L-55,205.917c0,0,0.001,18.377-12.375,18.083c-10.542-0.25-11.5-17.054-11.5-17.054S-81.083,184.958-76.917,169.806z"/>
		</g>
		<g>
			<path opacity="0.3" d="M-55.75,176.792l10.741-0.086c0,0-0.178-10.616-4.803-16.171c0,0-4.021-6.798-12.021-8.263l-8.417,9.813
				C-70.25,162.083-56.042,157.208-55.75,176.792z"/>
			<path opacity="0.3" d="M-76.917,169.806L-90.797,186c0,0-0.62,17,1.797,27.729c0,0,3.583,20.938,22.083,20.438
				c0,0,21.583,2.083,22.333-28.333L-55,205.917c0,0,0.001,18.377-12.375,18.083c-10.542-0.25-11.5-17.054-11.5-17.054
				S-81.083,184.958-76.917,169.806z"/>
		</g>
	</g>
	<polygon display="inline" stroke="#000000" stroke-miterlimit="10" points="-20.125,92.5 -155.322,252.5 -163.584,252.5 
		-28.387,92.5 	"/>
</g>
<g id="Capa_7">
	<polyline fill="none" stroke="#89C2C2" stroke-width="10" stroke-miterlimit="10" points="19,85 19,18 92,18 	"/>
	<polyline fill="none" stroke="#89C2C2" stroke-width="10" stroke-miterlimit="10" points="153,80 153,152 85,152 	"/>
	<polygon fill="#89C2C2" stroke="#89C2C2" stroke-width="7" stroke-miterlimit="10" points="22.166,153.5 145.132,16.5 151,16.5 
		29.69,153.5 	"/>
	<g>
		<g>
			<path fill="#FF6B84" d="M51.22,109.906c-5.304-0.288-9.809-2.13-13.517-5.526c-4.054-3.71-6.592-8.764-7.617-15.161l9.888-2.271
				c0.634,4.493,2.185,8.02,4.651,10.583c2.465,2.563,5.457,3.845,8.972,3.845c2.344,0,4.828-0.634,6.569-1.71"/>
		</g>
		<g>
			<path fill="#FF6B84" d="M64.917,94.333c0.245-1.056,0.106-2.757,0.106-3.968c0-5.371-4.688-11.23-14.062-17.578l-0.22-0.146
				c-7.617-5.224-12.598-9.459-14.941-12.708c-2.344-3.247-3.516-6.896-3.516-10.95c0-5.614,1.842-10.265,5.53-13.953
				c3.686-3.686,8.313-5.53,13.879-5.53c5.81,0,10.51,1.514,14.099,4.541c3.589,3.028,6.188,7.69,7.8,13.989l-8.862,2.71
				c-1.074-4.199-2.662-7.372-4.761-9.521c-2.1-2.148-4.713-3.223-7.836-3.223c-2.93,0-5.31,0.892-7.141,2.673
				c-1.831,1.783-2.747,4.09-2.747,6.921c0,4.541,4.565,9.864,13.696,15.967c3.906,2.637,6.933,4.761,9.082,6.372
				c3.467,2.637,6.03,5.566,7.69,8.789c0.609,1.183,1.485,3.318,1.87,4.614"/>
		</g>
	</g>
	<g>
		<g>
			<path fill="#FF6B84" d="M129.25,82.792l10.741-0.086c0,0-0.178-10.616-4.803-16.171c0,0-4.021-6.798-12.021-8.263l-8.417,9.813
				C114.75,68.083,128.958,63.208,129.25,82.792z"/>
			<path fill="#FF6B84" d="M108.083,75.806L94.203,92c0,0-0.62,17,1.797,27.729c0,0,3.583,20.938,22.083,20.438
				c0,0,21.583,2.083,22.333-28.333L130,111.917c0,0,0.001,18.377-12.375,18.083c-10.542-0.25-11.5-17.054-11.5-17.054
				S103.917,90.958,108.083,75.806z"/>
		</g>
		<g>
			<path opacity="0.3" fill="#FF6B84" d="M129.25,82.792l10.741-0.086c0,0-0.178-10.616-4.803-16.171c0,0-4.021-6.798-12.021-8.263
				l-8.417,9.813C114.75,68.083,128.958,63.208,129.25,82.792z"/>
			<path opacity="0.3" fill="#FF6B84" d="M108.083,75.806L94.203,92c0,0-0.62,17,1.797,27.729c0,0,3.583,20.938,22.083,20.438
				c0,0,21.583,2.083,22.333-28.333L130,111.917c0,0,0.001,18.377-12.375,18.083c-10.542-0.25-11.5-17.054-11.5-17.054
				S103.917,90.958,108.083,75.806z"/>
		</g>
	</g>
	<rect x="22.833" y="168.5" fill="none" width="152" height="41"/>
	
		<text transform="matrix(1 0 0 1 22.833 193.4893)" fill="#FF6B84" stroke="#FF6B84" stroke-width="0.75" stroke-miterlimit="10" font-family="'HelveticaNeueLTStd-Lt'" font-size="35">Samudio</text>
	<rect x="13.906" y="203.5" fill="none" width="165.716" height="43"/>
	
		<text transform="matrix(1 0 0 1 13.9063 228.4893)" fill="#FF6B84" stroke="#FF6B84" stroke-width="0.75" stroke-miterlimit="10" font-family="'HelveticaNeueLTStd-Lt'" font-size="35">Creations</text>
</g>
</svg>
