<?xml version="1.0" encoding="utf-8"?>
<!-- Generator: Adobe Illustrator 17.0.1, SVG Export Plug-In . SVG Version: 6.00 Build 0)  -->
<!DOCTYPE svg PUBLIC "-//W3C//DTD SVG 1.0//EN" "http://www.w3.org/TR/2001/REC-SVG-20010904/DTD/svg10.dtd">
<svg version="1.0" xmlns="http://www.w3.org/2000/svg" xmlns:xlink="http://www.w3.org/1999/xlink" x="0px" y="0px" width="162px"
	 height="164px" viewBox="0 0 162 164" enable-background="new 0 0 162 164" xml:space="preserve">
<g id="Capa_3" display="none">
	<polyline display="inline" fill="none" stroke="#89C2C2" stroke-width="6" stroke-miterlimit="10" points="83,154.667 83,84.667 
		153,84.667 	"/>
	<polyline display="inline" fill="none" stroke="#89C2C2" stroke-width="6" stroke-miterlimit="10" points="222,170.667 
		222,240.667 152,240.667 	"/>
	<rect x="100.667" y="79.333" display="inline" fill="none" width="130.667" height="144.667"/>
	<text transform="matrix(1 0 0 1 100.6663 187.7821)" opacity="0.5" font-family="'NewsGothicBT-RomanCondensed'" font-size="150">s</text>
	<rect x="146" y="106" display="inline" fill="none" width="130.667" height="144.667"/>
	
		<text transform="matrix(1 0 0 1 145.9997 214.4487)" opacity="0.5" stroke="#000000" stroke-miterlimit="10" font-family="'NewsGothicBT-RomanCondensed'" font-size="150">c</text>
	<polygon display="inline" fill="#89C2C2" stroke="#89C2C2" stroke-miterlimit="10" points="81.166,243.167 217.375,82.167 
		223.875,82.167 89.5,243.167 	"/>
</g>
<g id="Capa_4" display="none">
	<polyline display="inline" fill="none" stroke="#000000" stroke-width="6" stroke-miterlimit="10" points="312,147.667 312,77.667 
		382,77.667 	"/>
	<polyline display="inline" fill="none" stroke="#000000" stroke-width="6" stroke-miterlimit="10" points="451,163.667 
		451,233.667 381,233.667 	"/>
	<rect x="329.667" y="72.333" display="inline" fill="none" width="130.667" height="144.667"/>
	
		<text transform="matrix(1 0 0 1 329.6663 180.7821)" display="inline" font-family="'NewsGothicBT-RomanCondensed'" font-size="150">s</text>
	<rect x="375" y="99" display="inline" fill="none" width="130.667" height="144.667"/>
	
		<text transform="matrix(1 0 0 1 374.9997 207.4487)" display="inline" stroke="#000000" stroke-miterlimit="10" font-family="'NewsGothicBT-RomanCondensed'" font-size="150">c</text>
	<polyline display="inline" points="454,74.667 316,236.667 310,236.667 310,236.667 448.417,74.667 	"/>
</g>
<g id="Capa_5" display="none">
	<g display="inline">
		<g>
			<path fill="#FF6B84" d="M122.22,185.573c-5.304-0.288-9.809-2.13-13.517-5.526c-4.054-3.71-6.592-8.764-7.617-15.161l9.888-2.271
				c0.634,4.493,2.185,8.02,4.651,10.583c2.465,2.563,5.457,3.845,8.972,3.845c2.344,0,4.387-0.537,6.129-1.613"/>
		</g>
		<g>
			<path fill="#FF6B84" d="M135.655,169.433c0.245-1.056,0.368-2.19,0.368-3.401c0-5.371-4.688-11.23-14.062-17.578l-0.22-0.146
				c-7.617-5.224-12.598-9.459-14.941-12.708c-2.344-3.247-3.516-6.896-3.516-10.95c0-5.614,1.842-10.265,5.53-13.953
				c3.686-3.686,8.313-5.53,13.879-5.53c5.81,0,10.51,1.514,14.099,4.541c3.589,3.028,6.188,7.69,7.8,13.989l-8.862,2.71
				c-1.074-4.199-2.662-7.372-4.761-9.521c-2.1-2.148-4.713-3.223-7.836-3.223c-2.93,0-5.31,0.892-7.141,2.673
				c-1.831,1.783-2.747,4.09-2.747,6.921c0,4.541,4.565,9.864,13.696,15.967c3.906,2.637,6.933,4.761,9.082,6.372
				c3.467,2.637,6.03,5.566,7.69,8.789c0.609,1.183,1.107,2.423,1.493,3.718"/>
		</g>
	</g>
	<g display="inline">
		<g>
			<path fill="#FF6B84" d="M192.25,162.458l10.741-0.086c0,0-0.178-10.616-4.803-16.171c0,0-4.021-6.798-12.021-8.263l-8.417,9.813
				C177.75,147.75,191.958,142.875,192.25,162.458z"/>
			<path fill="#FF6B84" d="M171.083,155.472l-13.88,16.194c0,0-0.62,17,1.797,27.729c0,0,3.583,20.938,22.083,20.438
				c0,0,21.583,2.083,22.333-28.333L193,191.583c0,0,0.001,18.377-12.375,18.083c-10.542-0.25-11.5-17.054-11.5-17.054
				S166.917,170.625,171.083,155.472z"/>
		</g>
		<g>
			<path opacity="0.3" fill="#FF6B84" d="M192.25,162.458l10.741-0.086c0,0-0.178-10.616-4.803-16.171c0,0-4.021-6.798-12.021-8.263
				l-8.417,9.813C177.75,147.75,191.958,142.875,192.25,162.458z"/>
			<path opacity="0.3" fill="#FF6B84" d="M171.083,155.472l-13.88,16.194c0,0-0.62,17,1.797,27.729c0,0,3.583,20.938,22.083,20.438
				c0,0,21.583,2.083,22.333-28.333L193,191.583c0,0,0.001,18.377-12.375,18.083c-10.542-0.25-11.5-17.054-11.5-17.054
				S166.917,170.625,171.083,155.472z"/>
		</g>
	</g>
	<polyline display="inline" fill="none" stroke="#FFFFFF" stroke-width="6" stroke-miterlimit="10" points="293,159.667 293,89.667 
		363,89.667 	"/>
	<polyline display="inline" fill="none" stroke="#FFFFFF" stroke-width="6" stroke-miterlimit="10" points="432,175.667 
		432,245.667 362,245.667 	"/>
	<polyline display="inline" fill="#FFFFFF" stroke="#FFFFFF" stroke-miterlimit="10" points="435,86.917 297,249.167 291,249.167 
		291,249.167 429.417,87.042 	"/>
	<g display="inline">
		<g>
			<path fill="#FFFFFF" d="M332.22,190.573c-5.304-0.288-9.809-2.13-13.517-5.526c-4.054-3.71-6.592-8.764-7.617-15.161l9.888-2.271
				c0.634,4.493,2.185,8.02,4.651,10.583c2.465,2.563,5.457,3.845,8.972,3.845c2.344,0,4.387-0.537,6.129-1.613"/>
		</g>
		<g>
			<path fill="#FFFFFF" d="M345.655,174.433c0.245-1.056,0.368-2.19,0.368-3.401c0-5.371-4.688-11.23-14.062-17.578l-0.22-0.146
				c-7.617-5.224-12.598-9.459-14.941-12.708c-2.344-3.247-3.516-6.896-3.516-10.95c0-5.614,1.842-10.265,5.53-13.953
				c3.686-3.686,8.313-5.53,13.879-5.53c5.81,0,10.51,1.514,14.099,4.541c3.589,3.028,6.188,7.69,7.8,13.989l-8.862,2.71
				c-1.074-4.199-2.662-7.372-4.761-9.521c-2.1-2.148-4.713-3.223-7.836-3.223c-2.93,0-5.31,0.892-7.141,2.673
				c-1.831,1.783-2.747,4.09-2.747,6.921c0,4.541,4.565,9.864,13.696,15.967c3.906,2.637,6.933,4.761,9.082,6.372
				c3.467,2.637,6.03,5.566,7.69,8.789c0.609,1.183,1.107,2.423,1.493,3.718"/>
		</g>
	</g>
	<g display="inline">
		<g>
			<path fill="#FFFFFF" d="M402.25,167.458l10.741-0.086c0,0-0.178-10.616-4.803-16.171c0,0-4.021-6.798-12.021-8.263l-8.417,9.813
				C387.75,152.75,401.958,147.875,402.25,167.458z"/>
			<path fill="#FFFFFF" d="M381.083,160.472l-13.88,16.194c0,0-0.62,17,1.797,27.729c0,0,3.583,20.938,22.083,20.438
				c0,0,21.583,2.083,22.333-28.333L403,196.583c0,0,0.001,18.377-12.375,18.083c-10.542-0.25-11.5-17.054-11.5-17.054
				S376.917,175.625,381.083,160.472z"/>
		</g>
		<g>
			<path fill="none" stroke="#FFFFFF" stroke-miterlimit="10" d="M402.25,167.458l10.741-0.086c0,0-0.178-10.616-4.803-16.171
				c0,0-4.021-6.798-12.021-8.263l-8.417,9.813C387.75,152.75,401.958,147.875,402.25,167.458z"/>
			<path fill="none" stroke="#FFFFFF" stroke-miterlimit="10" d="M381.083,160.472l-13.88,16.194c0,0-0.62,17,1.797,27.729
				c0,0,3.583,20.938,22.083,20.438c0,0,21.583,2.083,22.333-28.333L403,196.583c0,0,0.001,18.377-12.375,18.083
				c-10.542-0.25-11.5-17.054-11.5-17.054S376.917,175.625,381.083,160.472z"/>
		</g>
	</g>
	<rect x="68" y="258.167" display="inline" fill="none" width="152" height="41"/>
	
		<text transform="matrix(1 0 0 1 68 282.2409)" display="inline" fill="#FF6B84" stroke="#FF6B84" stroke-width="0.25" stroke-miterlimit="10" font-family="'Microsoft-Yi-Baiti'" font-size="45">Samudio</text>
	<rect x="81.906" y="291.167" display="inline" fill="none" width="165.716" height="43"/>
	
		<text transform="matrix(1 0 0 1 81.9063 315.2409)" display="inline" fill="#FF6B84" stroke="#FF6B84" stroke-width="0.25" stroke-miterlimit="10" font-family="'Microsoft-Yi-Baiti'" font-size="45">Creations</text>
	<rect x="-181" y="258.167" display="inline" fill="none" width="152" height="41"/>
	
		<text transform="matrix(1 0 0 1 -181 282.2409)" display="inline" stroke="#000000" stroke-width="0.25" stroke-miterlimit="10" font-family="'Microsoft-Yi-Baiti'" font-size="45">Samudio</text>
	<rect x="-167.094" y="291.167" display="inline" fill="none" width="165.716" height="43"/>
	
		<text transform="matrix(1 0 0 1 -167.0938 315.2409)" display="inline" stroke="#000000" stroke-width="0.25" stroke-miterlimit="10" font-family="'Microsoft-Yi-Baiti'" font-size="45">Creations</text>
</g>
<g id="Capa_6" display="none">
	<polyline display="inline" fill="none" stroke="#000000" stroke-width="6" stroke-miterlimit="10" points="-167,157.667 
		-167,91.667 -93,91.667 	"/>
	<polyline display="inline" fill="none" stroke="#000000" stroke-width="6" stroke-miterlimit="10" points="-28,173.667 
		-28,247.667 -94,247.667 	"/>
	<g display="inline">
		<g>
			<path d="M-125.78,188.573c-5.304-0.288-9.809-2.13-13.517-5.526c-4.054-3.71-6.592-8.764-7.617-15.161l9.888-2.271
				c0.634,4.493,2.185,8.02,4.651,10.583c2.465,2.563,5.457,3.845,8.972,3.845c2.344,0,4.387-0.537,6.129-1.613"/>
		</g>
		<g>
			<path d="M-112.345,172.433c0.245-1.056,0.368-2.19,0.368-3.401c0-5.371-4.688-11.23-14.062-17.578l-0.22-0.146
				c-7.617-5.224-12.598-9.459-14.941-12.708c-2.344-3.247-3.516-6.896-3.516-10.95c0-5.614,1.842-10.265,5.53-13.953
				c3.686-3.686,8.313-5.53,13.879-5.53c5.81,0,10.51,1.514,14.099,4.541c3.589,3.028,6.188,7.69,7.8,13.989l-8.862,2.71
				c-1.074-4.199-2.662-7.372-4.761-9.521c-2.1-2.148-4.713-3.223-7.836-3.223c-2.93,0-5.31,0.892-7.141,2.673
				c-1.831,1.783-2.747,4.09-2.747,6.921c0,4.541,4.565,9.864,13.696,15.967c3.906,2.637,6.933,4.761,9.082,6.372
				c3.467,2.637,6.03,5.566,7.69,8.789c0.609,1.183,1.107,2.423,1.493,3.718"/>
		</g>
	</g>
	<g display="inline">
		<g>
			<path d="M-60.75,173.458l10.741-0.086c0,0-0.178-10.616-4.803-16.171c0,0-4.021-6.798-12.021-8.263l-8.417,9.813
				C-75.25,158.75-61.042,153.875-60.75,173.458z"/>
			<path d="M-81.917,166.472l-13.88,16.194c0,0-0.62,17,1.797,27.729c0,0,3.583,20.938,22.083,20.438
				c0,0,21.583,2.083,22.333-28.333L-60,202.583c0,0,0.001,18.377-12.375,18.083c-10.542-0.25-11.5-17.054-11.5-17.054
				S-86.083,181.625-81.917,166.472z"/>
		</g>
		<g>
			<path opacity="0.3" d="M-60.75,173.458l10.741-0.086c0,0-0.178-10.616-4.803-16.171c0,0-4.021-6.798-12.021-8.263l-8.417,9.813
				C-75.25,158.75-61.042,153.875-60.75,173.458z"/>
			<path opacity="0.3" d="M-81.917,166.472l-13.88,16.194c0,0-0.62,17,1.797,27.729c0,0,3.583,20.938,22.083,20.438
				c0,0,21.583,2.083,22.333-28.333L-60,202.583c0,0,0.001,18.377-12.375,18.083c-10.542-0.25-11.5-17.054-11.5-17.054
				S-86.083,181.625-81.917,166.472z"/>
		</g>
	</g>
	<polygon display="inline" stroke="#000000" stroke-miterlimit="10" points="-25.125,89.167 -160.322,249.167 -168.584,249.167 
		-33.387,89.167 	"/>
</g>
<g id="Capa_7">
	<polyline fill="none" stroke="#FFFFFF" stroke-width="10" stroke-miterlimit="10" points="14,81.667 14,14.667 87,14.667 	"/>
	<polyline fill="none" stroke="#FFFFFF" stroke-width="10" stroke-miterlimit="10" points="148,76.667 148,148.667 80,148.667 	"/>
	<polygon fill="#FFFFFF" stroke="#FFFFFF" stroke-width="7" stroke-miterlimit="10" points="17.166,150.167 140.132,13.167 
		146,13.167 24.69,150.167 	"/>
	<g>
		<g>
			<path fill="#FFFFFF" d="M46.22,106.573c-5.304-0.288-9.809-2.13-13.517-5.526c-4.054-3.71-6.592-8.764-7.617-15.161l9.888-2.271
				c0.634,4.493,2.185,8.02,4.651,10.583c2.465,2.563,5.457,3.845,8.972,3.845c2.344,0,4.828-0.634,6.569-1.71"/>
		</g>
		<g>
			<path fill="#FFFFFF" d="M59.917,91c0.245-1.056,0.106-2.757,0.106-3.968c0-5.371-4.688-11.23-14.062-17.578l-0.22-0.146
				c-7.617-5.224-12.598-9.459-14.941-12.708c-2.344-3.247-3.516-6.896-3.516-10.95c0-5.614,1.842-10.265,5.53-13.953
				c3.686-3.686,8.313-5.53,13.879-5.53c5.81,0,10.51,1.514,14.099,4.541c3.589,3.028,6.188,7.69,7.8,13.989l-8.862,2.71
				c-1.074-4.199-2.662-7.372-4.761-9.521c-2.1-2.148-4.713-3.223-7.836-3.223c-2.93,0-5.31,0.892-7.141,2.673
				c-1.831,1.783-2.747,4.09-2.747,6.921c0,4.541,4.565,9.864,13.696,15.967c3.906,2.637,6.933,4.761,9.082,6.372
				c3.467,2.637,6.03,5.566,7.69,8.789c0.609,1.183,1.485,3.318,1.87,4.614"/>
		</g>
	</g>
	<g>
		<g>
			<path fill="#FFFFFF" d="M124.25,79.458l10.741-0.086c0,0-0.178-10.616-4.803-16.171c0,0-4.021-6.798-12.021-8.263l-8.417,9.813
				C109.75,64.75,123.958,59.875,124.25,79.458z"/>
			<path fill="#FFFFFF" d="M103.083,72.472l-13.88,16.194c0,0-0.62,17,1.797,27.729c0,0,3.583,20.937,22.083,20.437
				c0,0,21.583,2.083,22.333-28.333L125,108.583c0,0,0.001,18.377-12.375,18.083c-10.542-0.25-11.5-17.054-11.5-17.054
				S98.917,87.625,103.083,72.472z"/>
		</g>
		<g>
			<path fill="#FFFFFF" d="M124.25,79.458l10.741-0.086c0,0-0.178-10.616-4.803-16.171c0,0-4.021-6.798-12.021-8.263l-8.417,9.813
				C109.75,64.75,123.958,59.875,124.25,79.458z"/>
			<path fill="#FFFFFF" d="M103.083,72.472l-13.88,16.194c0,0-0.62,17,1.797,27.729c0,0,3.583,20.937,22.083,20.437
				c0,0,21.583,2.083,22.333-28.333L125,108.583c0,0,0.001,18.377-12.375,18.083c-10.542-0.25-11.5-17.054-11.5-17.054
				S98.917,87.625,103.083,72.472z"/>
		</g>
	</g>
</g>
<g id="Capa_8" display="none">
	<rect x="8.906" y="200.167" display="inline" fill="none" width="165.716" height="43"/>
	
		<text transform="matrix(1 0 0 1 8.9063 225.1559)" display="inline" fill="#FF6B84" stroke="#FF6B84" stroke-width="0.75" stroke-miterlimit="10" font-family="'HelveticaNeueLTStd-Lt'" font-size="35">Creations</text>
	<rect x="17.833" y="165.167" display="inline" fill="none" width="152" height="41"/>
	
		<text transform="matrix(1 0 0 1 17.833 190.1559)" display="inline" fill="#FF6B84" stroke="#FF6B84" stroke-width="0.75" stroke-miterlimit="10" font-family="'HelveticaNeueLTStd-Lt'" font-size="35">Samudio</text>
</g>
</svg>
