<?xml version="1.0" encoding="utf-8"?>
<!-- Generator: Adobe Illustrator 17.0.1, SVG Export Plug-In . SVG Version: 6.00 Build 0)  -->
<!DOCTYPE svg PUBLIC "-//W3C//DTD SVG 1.0//EN" "http://www.w3.org/TR/2001/REC-SVG-20010904/DTD/svg10.dtd">
<svg version="1.0" id="Capa_3" xmlns="http://www.w3.org/2000/svg" xmlns:xlink="http://www.w3.org/1999/xlink" x="0px" y="0px"
	 width="259px" height="265px" viewBox="-39.5 -29.5 259 265" enable-background="new -39.5 -29.5 259 265" xml:space="preserve">
<polyline fill="none" stroke="#000000" stroke-width="6" stroke-miterlimit="10" points="14.5,57.5 14.5,-12.5 84.5,-12.5 "/>
<polyline fill="none" stroke="#000000" stroke-width="6" stroke-miterlimit="10" points="153.5,73.5 153.5,143.5 83.5,143.5 "/>
<polyline stroke="#000000" stroke-miterlimit="10" points="156.5,-15.25 18.5,147 12.5,147 12.5,147 150.917,-15.125 "/>
<g>
	<g>
		<path stroke="#000000" stroke-miterlimit="10" d="M53.72,88.406c-5.304-0.288-9.809-2.13-13.517-5.526
			c-4.054-3.71-6.592-8.764-7.617-15.161l9.888-2.271c0.634,4.493,2.185,8.02,4.651,10.583c2.465,2.563,5.457,3.845,8.972,3.845
			c2.344,0,4.387-0.537,6.129-1.613"/>
	</g>
	<g>
		<path stroke="#000000" stroke-miterlimit="10" d="M67.155,72.266c0.245-1.056,0.368-2.19,0.368-3.401
			c0-5.371-4.688-11.23-14.062-17.578l-0.22-0.146c-7.617-5.224-12.598-9.459-14.941-12.708c-2.344-3.247-3.516-6.896-3.516-10.95
			c0-5.614,1.842-10.265,5.53-13.953c3.686-3.686,8.313-5.53,13.879-5.53c5.81,0,10.51,1.514,14.099,4.541
			c3.589,3.028,6.188,7.69,7.8,13.989l-8.862,2.71c-1.074-4.199-2.662-7.372-4.761-9.521c-2.1-2.148-4.713-3.223-7.836-3.223
			c-2.93,0-5.31,0.892-7.141,2.673c-1.831,1.783-2.747,4.09-2.747,6.921c0,4.541,4.565,9.864,13.696,15.967
			c3.906,2.637,6.933,4.761,9.082,6.372c3.467,2.637,6.03,5.566,7.69,8.789c0.609,1.183,1.107,2.423,1.493,3.718"/>
	</g>
</g>
<g>
	<g>
		<path d="M123.75,65.292l10.741-0.086c0,0-0.178-10.616-4.803-16.171c0,0-4.021-6.798-12.021-8.263l-8.417,9.813
			C109.25,50.583,123.458,45.708,123.75,65.292z"/>
		<path d="M102.583,58.306L88.703,74.5c0,0-0.62,17,1.797,27.729c0,0,3.583,20.938,22.083,20.438c0,0,21.583,2.083,22.333-28.333
			L124.5,94.417c0,0,0.001,18.377-12.375,18.083c-10.542-0.25-11.5-17.054-11.5-17.054S98.417,73.458,102.583,58.306z"/>
	</g>
	<g>
		<path opacity="0.3" d="M123.75,65.292l10.741-0.086c0,0-0.178-10.616-4.803-16.171c0,0-4.021-6.798-12.021-8.263l-8.417,9.813
			C109.25,50.583,123.458,45.708,123.75,65.292z"/>
		<path opacity="0.3" d="M102.583,58.306L88.703,74.5c0,0-0.62,17,1.797,27.729c0,0,3.583,20.938,22.083,20.438
			c0,0,21.583,2.083,22.333-28.333L124.5,94.417c0,0,0.001,18.377-12.375,18.083c-10.542-0.25-11.5-17.054-11.5-17.054
			S98.417,73.458,102.583,58.306z"/>
	</g>
	<g>
		<path fill="none" stroke="#000000" stroke-miterlimit="10" d="M123.75,65.292l10.741-0.086c0,0-0.178-10.616-4.803-16.171
			c0,0-4.021-6.798-12.021-8.263l-8.417,9.813C109.25,50.583,123.458,45.708,123.75,65.292z"/>
		<path fill="none" stroke="#000000" stroke-miterlimit="10" d="M102.583,58.306L88.703,74.5c0,0-0.62,17,1.797,27.729
			c0,0,3.583,20.938,22.083,20.438c0,0,21.583,2.083,22.333-28.333L124.5,94.417c0,0,0.001,18.377-12.375,18.083
			c-10.542-0.25-11.5-17.054-11.5-17.054S98.417,73.458,102.583,58.306z"/>
	</g>
</g>
<rect x="0.5" y="155" fill="none" width="152" height="41"/>
<text transform="matrix(1 0 0 1 0.5 179.0742)" stroke="#000000" stroke-width="0.25" stroke-miterlimit="10" font-family="'Microsoft-Yi-Baiti'" font-size="45">Samudio</text>
<rect x="14.406" y="188" fill="none" width="165.716" height="43"/>
<text transform="matrix(1 0 0 1 14.4063 212.0742)" stroke="#000000" stroke-width="0.25" stroke-miterlimit="10" font-family="'Microsoft-Yi-Baiti'" font-size="45">Creations</text>
</svg>
