<?xml version="1.0" encoding="utf-8"?>
<!-- Generator: Adobe Illustrator 17.0.1, SVG Export Plug-In . SVG Version: 6.00 Build 0)  -->
<!DOCTYPE svg PUBLIC "-//W3C//DTD SVG 1.0//EN" "http://www.w3.org/TR/2001/REC-SVG-20010904/DTD/svg10.dtd">
<svg version="1.0" id="Capa_3" xmlns="http://www.w3.org/2000/svg" xmlns:xlink="http://www.w3.org/1999/xlink" x="0px" y="0px"
	 width="259px" height="265px" viewBox="-39.5 -29.5 259 265" enable-background="new -39.5 -29.5 259 265" xml:space="preserve">
<polyline fill="none" points="19.5,90.5 19.5,20.5 89.5,20.5 "/>
<polyline fill="none" points="158.5,106.5 158.5,176.5 88.5,176.5 "/>
<polygon fill="#FFFFFF" stroke="#FFFFFF" stroke-miterlimit="10" points="17.666,180 153.875,19 160.375,19 26,180 "/>
<g>
	<g>
		<path fill="#FFFFFF" d="M58.72,121.406c-5.304-0.288-9.809-2.13-13.517-5.526c-4.054-3.71-6.592-8.764-7.617-15.161l9.888-2.271
			c0.634,4.493,2.185,8.02,4.651,10.583c2.465,2.563,5.457,3.845,8.972,3.845c2.344,0,4.387-0.537,6.129-1.613"/>
	</g>
	<g>
		<path fill="#FFFFFF" d="M72.155,105.266c0.245-1.056,0.368-2.19,0.368-3.401c0-5.371-4.688-11.23-14.062-17.578l-0.22-0.146
			c-7.617-5.224-12.598-9.459-14.941-12.708c-2.344-3.247-3.516-6.896-3.516-10.95c0-5.614,1.842-10.265,5.53-13.953
			c3.686-3.686,8.313-5.53,13.879-5.53c5.81,0,10.51,1.514,14.099,4.541c3.589,3.028,6.188,7.69,7.8,13.989l-8.862,2.71
			c-1.074-4.199-2.662-7.372-4.761-9.521c-2.1-2.148-4.713-3.223-7.836-3.223c-2.93,0-5.31,0.892-7.141,2.673
			c-1.831,1.783-2.747,4.09-2.747,6.921c0,4.541,4.565,9.864,13.696,15.967c3.906,2.637,6.933,4.761,9.082,6.372
			c3.467,2.637,6.03,5.566,7.69,8.789c0.609,1.183,1.107,2.423,1.493,3.718"/>
	</g>
</g>
<g>
	<g>
		<path fill="#FFFFFF" d="M128.75,98.292l10.741-0.086c0,0-0.178-10.616-4.803-16.171c0,0-4.021-6.798-12.021-8.263l-8.417,9.813
			C114.25,83.583,128.458,78.708,128.75,98.292z"/>
		<path fill="#FFFFFF" d="M107.583,91.306L93.703,107.5c0,0-0.62,17,1.797,27.729c0,0,3.583,20.938,22.083,20.438
			c0,0,21.583,2.083,22.333-28.333l-10.417,0.083c0,0,0.001,18.377-12.375,18.083c-10.542-0.25-11.5-17.054-11.5-17.054
			S103.417,106.458,107.583,91.306z"/>
	</g>
	<g>
		<path opacity="0.3" fill="#FFFFFF" d="M128.75,98.292l10.741-0.086c0,0-0.178-10.616-4.803-16.171c0,0-4.021-6.798-12.021-8.263
			l-8.417,9.813C114.25,83.583,128.458,78.708,128.75,98.292z"/>
		<path opacity="0.3" fill="#FFFFFF" d="M107.583,91.306L93.703,107.5c0,0-0.62,17,1.797,27.729c0,0,3.583,20.938,22.083,20.438
			c0,0,21.583,2.083,22.333-28.333l-10.417,0.083c0,0,0.001,18.377-12.375,18.083c-10.542-0.25-11.5-17.054-11.5-17.054
			S103.417,106.458,107.583,91.306z"/>
	</g>
</g>
</svg>
