<?xml version="1.0" encoding="utf-8"?>
<!-- Generator: Adobe Illustrator 17.0.1, SVG Export Plug-In . SVG Version: 6.00 Build 0)  -->
<!DOCTYPE svg PUBLIC "-//W3C//DTD SVG 1.0//EN" "http://www.w3.org/TR/2001/REC-SVG-20010904/DTD/svg10.dtd">
<svg version="1.0" xmlns="http://www.w3.org/2000/svg" xmlns:xlink="http://www.w3.org/1999/xlink" x="0px" y="0px" width="45px"
	 height="45.5px" viewBox="0 0 45 45.5" enable-background="new 0 0 45 45.5" xml:space="preserve">
<g id="Capa_3" display="none">
	<polyline display="inline" fill="none" stroke="#89C2C2" stroke-width="6" stroke-miterlimit="10" points="78.5,150.5 78.5,80.5 
		148.5,80.5 	"/>
	<polyline display="inline" fill="none" stroke="#89C2C2" stroke-width="6" stroke-miterlimit="10" points="217.5,166.5 
		217.5,236.5 147.5,236.5 	"/>
	<rect x="96.167" y="75.167" display="inline" fill="none" width="130.667" height="144.667"/>
	<text transform="matrix(1 0 0 1 96.1663 183.6154)" opacity="0.5" font-family="'NewsGothicBT-RomanCondensed'" font-size="150">s</text>
	<rect x="141.5" y="101.833" display="inline" fill="none" width="130.667" height="144.667"/>
	
		<text transform="matrix(1 0 0 1 141.4997 210.2821)" opacity="0.5" stroke="#000000" stroke-miterlimit="10" font-family="'NewsGothicBT-RomanCondensed'" font-size="150">c</text>
	<polygon display="inline" fill="#89C2C2" stroke="#89C2C2" stroke-miterlimit="10" points="76.666,239 212.875,78 219.375,78 
		85,239 	"/>
</g>
<g id="Capa_4" display="none">
	<polyline display="inline" fill="none" stroke="#000000" stroke-width="6" stroke-miterlimit="10" points="307.5,143.5 307.5,73.5 
		377.5,73.5 	"/>
	<polyline display="inline" fill="none" stroke="#000000" stroke-width="6" stroke-miterlimit="10" points="446.5,159.5 
		446.5,229.5 376.5,229.5 	"/>
	<rect x="325.167" y="68.167" display="inline" fill="none" width="130.667" height="144.667"/>
	
		<text transform="matrix(1 0 0 1 325.1663 176.6154)" display="inline" font-family="'NewsGothicBT-RomanCondensed'" font-size="150">s</text>
	<rect x="370.5" y="94.833" display="inline" fill="none" width="130.667" height="144.667"/>
	
		<text transform="matrix(1 0 0 1 370.4997 203.2821)" display="inline" stroke="#000000" stroke-miterlimit="10" font-family="'NewsGothicBT-RomanCondensed'" font-size="150">c</text>
	<polyline display="inline" points="449.5,70.5 311.5,232.5 305.5,232.5 305.5,232.5 443.917,70.5 	"/>
</g>
<g id="Capa_5" display="none">
	<g display="inline">
		<g>
			<path fill="#FF6B84" d="M117.72,181.406c-5.304-0.288-9.809-2.13-13.517-5.526c-4.054-3.71-6.592-8.764-7.617-15.161l9.888-2.271
				c0.634,4.493,2.185,8.02,4.651,10.583c2.465,2.563,5.457,3.845,8.972,3.845c2.344,0,4.387-0.537,6.129-1.613"/>
		</g>
		<g>
			<path fill="#FF6B84" d="M131.155,165.266c0.245-1.056,0.368-2.19,0.368-3.401c0-5.371-4.688-11.23-14.062-17.578l-0.22-0.146
				c-7.617-5.224-12.598-9.459-14.941-12.708c-2.344-3.247-3.516-6.896-3.516-10.95c0-5.614,1.842-10.265,5.53-13.953
				c3.686-3.686,8.313-5.53,13.879-5.53c5.81,0,10.51,1.514,14.099,4.541c3.589,3.028,6.188,7.69,7.8,13.989l-8.862,2.71
				c-1.074-4.199-2.662-7.372-4.761-9.521c-2.1-2.148-4.713-3.223-7.836-3.223c-2.93,0-5.31,0.892-7.141,2.673
				c-1.831,1.783-2.747,4.09-2.747,6.921c0,4.541,4.565,9.864,13.696,15.967c3.906,2.637,6.933,4.761,9.082,6.372
				c3.467,2.637,6.03,5.566,7.69,8.789c0.609,1.183,1.107,2.423,1.493,3.718"/>
		</g>
	</g>
	<g display="inline">
		<g>
			<path fill="#FF6B84" d="M187.75,158.292l10.741-0.086c0,0-0.178-10.616-4.803-16.171c0,0-4.021-6.798-12.021-8.263l-8.417,9.813
				C173.25,143.583,187.458,138.708,187.75,158.292z"/>
			<path fill="#FF6B84" d="M166.583,151.306l-13.88,16.194c0,0-0.62,17,1.797,27.729c0,0,3.583,20.938,22.083,20.438
				c0,0,21.583,2.083,22.333-28.333l-10.417,0.083c0,0,0.001,18.377-12.375,18.083c-10.542-0.25-11.5-17.054-11.5-17.054
				S162.417,166.458,166.583,151.306z"/>
		</g>
		<g>
			<path opacity="0.3" fill="#FF6B84" d="M187.75,158.292l10.741-0.086c0,0-0.178-10.616-4.803-16.171c0,0-4.021-6.798-12.021-8.263
				l-8.417,9.813C173.25,143.583,187.458,138.708,187.75,158.292z"/>
			<path opacity="0.3" fill="#FF6B84" d="M166.583,151.306l-13.88,16.194c0,0-0.62,17,1.797,27.729c0,0,3.583,20.938,22.083,20.438
				c0,0,21.583,2.083,22.333-28.333l-10.417,0.083c0,0,0.001,18.377-12.375,18.083c-10.542-0.25-11.5-17.054-11.5-17.054
				S162.417,166.458,166.583,151.306z"/>
		</g>
	</g>
	<polyline display="inline" fill="none" stroke="#FFFFFF" stroke-width="6" stroke-miterlimit="10" points="288.5,155.5 288.5,85.5 
		358.5,85.5 	"/>
	<polyline display="inline" fill="none" stroke="#FFFFFF" stroke-width="6" stroke-miterlimit="10" points="427.5,171.5 
		427.5,241.5 357.5,241.5 	"/>
	<polyline display="inline" fill="#FFFFFF" stroke="#FFFFFF" stroke-miterlimit="10" points="430.5,82.75 292.5,245 286.5,245 
		286.5,245 424.917,82.875 	"/>
	<g display="inline">
		<g>
			<path fill="#FFFFFF" d="M327.72,186.406c-5.304-0.288-9.809-2.13-13.517-5.526c-4.054-3.71-6.592-8.764-7.617-15.161l9.888-2.271
				c0.634,4.493,2.185,8.02,4.651,10.583c2.465,2.563,5.457,3.845,8.972,3.845c2.344,0,4.387-0.537,6.129-1.613"/>
		</g>
		<g>
			<path fill="#FFFFFF" d="M341.155,170.266c0.245-1.056,0.368-2.19,0.368-3.401c0-5.371-4.688-11.23-14.062-17.578l-0.22-0.146
				c-7.617-5.224-12.598-9.459-14.941-12.708c-2.344-3.247-3.516-6.896-3.516-10.95c0-5.614,1.842-10.265,5.53-13.953
				c3.686-3.686,8.313-5.53,13.879-5.53c5.81,0,10.51,1.514,14.099,4.541c3.589,3.028,6.188,7.69,7.8,13.989l-8.862,2.71
				c-1.074-4.199-2.662-7.372-4.761-9.521c-2.1-2.148-4.713-3.223-7.836-3.223c-2.93,0-5.31,0.892-7.141,2.673
				c-1.831,1.783-2.747,4.09-2.747,6.921c0,4.541,4.565,9.864,13.696,15.967c3.906,2.637,6.933,4.761,9.082,6.372
				c3.467,2.637,6.03,5.566,7.69,8.789c0.609,1.183,1.107,2.423,1.493,3.718"/>
		</g>
	</g>
	<g display="inline">
		<g>
			<path fill="#FFFFFF" d="M397.75,163.292l10.741-0.086c0,0-0.178-10.616-4.803-16.171c0,0-4.021-6.798-12.021-8.263l-8.417,9.813
				C383.25,148.583,397.458,143.708,397.75,163.292z"/>
			<path fill="#FFFFFF" d="M376.583,156.306l-13.88,16.194c0,0-0.62,17,1.797,27.729c0,0,3.583,20.938,22.083,20.438
				c0,0,21.583,2.083,22.333-28.333l-10.417,0.083c0,0,0.001,18.377-12.375,18.083c-10.542-0.25-11.5-17.054-11.5-17.054
				S372.417,171.458,376.583,156.306z"/>
		</g>
		<g>
			<path fill="none" stroke="#FFFFFF" stroke-miterlimit="10" d="M397.75,163.292l10.741-0.086c0,0-0.178-10.616-4.803-16.171
				c0,0-4.021-6.798-12.021-8.263l-8.417,9.813C383.25,148.583,397.458,143.708,397.75,163.292z"/>
			<path fill="none" stroke="#FFFFFF" stroke-miterlimit="10" d="M376.583,156.306l-13.88,16.194c0,0-0.62,17,1.797,27.729
				c0,0,3.583,20.938,22.083,20.438c0,0,21.583,2.083,22.333-28.333l-10.417,0.083c0,0,0.001,18.377-12.375,18.083
				c-10.542-0.25-11.5-17.054-11.5-17.054S372.417,171.458,376.583,156.306z"/>
		</g>
	</g>
	<rect x="63.5" y="254" display="inline" fill="none" width="152" height="41"/>
	
		<text transform="matrix(1 0 0 1 63.5 278.0742)" display="inline" fill="#FF6B84" stroke="#FF6B84" stroke-width="0.25" stroke-miterlimit="10" font-family="'Microsoft-Yi-Baiti'" font-size="45">Samudio</text>
	<rect x="77.406" y="287" display="inline" fill="none" width="165.716" height="43"/>
	
		<text transform="matrix(1 0 0 1 77.4063 311.0742)" display="inline" fill="#FF6B84" stroke="#FF6B84" stroke-width="0.25" stroke-miterlimit="10" font-family="'Microsoft-Yi-Baiti'" font-size="45">Creations</text>
	<rect x="-185.5" y="254" display="inline" fill="none" width="152" height="41"/>
	
		<text transform="matrix(1 0 0 1 -185.5 278.0742)" display="inline" stroke="#000000" stroke-width="0.25" stroke-miterlimit="10" font-family="'Microsoft-Yi-Baiti'" font-size="45">Samudio</text>
	<rect x="-171.594" y="287" display="inline" fill="none" width="165.716" height="43"/>
	
		<text transform="matrix(1 0 0 1 -171.5938 311.0742)" display="inline" stroke="#000000" stroke-width="0.25" stroke-miterlimit="10" font-family="'Microsoft-Yi-Baiti'" font-size="45">Creations</text>
</g>
<g id="Capa_6" display="none">
	<polyline display="inline" fill="none" stroke="#000000" stroke-width="6" stroke-miterlimit="10" points="-171.5,153.5 
		-171.5,87.5 -97.5,87.5 	"/>
	<polyline display="inline" fill="none" stroke="#000000" stroke-width="6" stroke-miterlimit="10" points="-32.5,169.5 
		-32.5,243.5 -98.5,243.5 	"/>
	<g display="inline">
		<g>
			<path d="M-130.28,184.406c-5.304-0.288-9.809-2.13-13.517-5.526c-4.054-3.71-6.592-8.764-7.617-15.161l9.888-2.271
				c0.634,4.493,2.185,8.02,4.651,10.583c2.465,2.563,5.457,3.845,8.972,3.845c2.344,0,4.387-0.537,6.129-1.613"/>
		</g>
		<g>
			<path d="M-116.845,168.266c0.245-1.056,0.368-2.19,0.368-3.401c0-5.371-4.688-11.23-14.062-17.578l-0.22-0.146
				c-7.617-5.224-12.598-9.459-14.941-12.708c-2.344-3.247-3.516-6.896-3.516-10.95c0-5.614,1.842-10.265,5.53-13.953
				c3.686-3.686,8.313-5.53,13.879-5.53c5.81,0,10.51,1.514,14.099,4.541c3.589,3.028,6.188,7.69,7.8,13.989l-8.862,2.71
				c-1.074-4.199-2.662-7.372-4.761-9.521c-2.1-2.148-4.713-3.223-7.836-3.223c-2.93,0-5.31,0.892-7.141,2.673
				c-1.831,1.783-2.747,4.09-2.747,6.921c0,4.541,4.565,9.864,13.696,15.967c3.906,2.637,6.933,4.761,9.082,6.372
				c3.467,2.637,6.03,5.566,7.69,8.789c0.609,1.183,1.107,2.423,1.493,3.718"/>
		</g>
	</g>
	<g display="inline">
		<g>
			<path d="M-65.25,169.292l10.741-0.086c0,0-0.178-10.616-4.803-16.171c0,0-4.021-6.798-12.021-8.263l-8.417,9.813
				C-79.75,154.583-65.542,149.708-65.25,169.292z"/>
			<path d="M-86.417,162.306l-13.88,16.194c0,0-0.62,17,1.797,27.729c0,0,3.583,20.938,22.083,20.438
				c0,0,21.583,2.083,22.333-28.333l-10.417,0.083c0,0,0.001,18.377-12.375,18.083c-10.542-0.25-11.5-17.054-11.5-17.054
				S-90.583,177.458-86.417,162.306z"/>
		</g>
		<g>
			<path opacity="0.3" d="M-65.25,169.292l10.741-0.086c0,0-0.178-10.616-4.803-16.171c0,0-4.021-6.798-12.021-8.263l-8.417,9.813
				C-79.75,154.583-65.542,149.708-65.25,169.292z"/>
			<path opacity="0.3" d="M-86.417,162.306l-13.88,16.194c0,0-0.62,17,1.797,27.729c0,0,3.583,20.938,22.083,20.438
				c0,0,21.583,2.083,22.333-28.333l-10.417,0.083c0,0,0.001,18.377-12.375,18.083c-10.542-0.25-11.5-17.054-11.5-17.054
				S-90.583,177.458-86.417,162.306z"/>
		</g>
	</g>
	<polygon display="inline" stroke="#000000" stroke-miterlimit="10" points="-29.625,85 -164.822,245 -173.084,245 -37.887,85 	"/>
</g>
<g id="Capa_7" display="none">
	<polyline display="inline" fill="none" stroke="#89C2C2" stroke-width="10" stroke-miterlimit="10" points="9.5,77.5 9.5,10.5 
		82.5,10.5 	"/>
	<polyline display="inline" fill="none" stroke="#89C2C2" stroke-width="10" stroke-miterlimit="10" points="143.5,72.5 
		143.5,144.5 75.5,144.5 	"/>
	<polygon display="inline" fill="#89C2C2" stroke="#89C2C2" stroke-width="7" stroke-miterlimit="10" points="12.666,146 135.632,9 
		141.5,9 20.19,146 	"/>
	<g display="inline">
		<g>
			<path fill="#FF6B84" d="M41.72,102.406c-5.304-0.288-9.809-2.13-13.517-5.526c-4.054-3.71-6.592-8.764-7.617-15.161l9.888-2.271
				c0.634,4.493,2.185,8.02,4.651,10.583c2.465,2.563,5.457,3.845,8.972,3.845c2.344,0,4.828-0.634,6.569-1.71"/>
		</g>
		<g>
			<path fill="#FF6B84" d="M55.417,86.833c0.245-1.056,0.106-2.757,0.106-3.968c0-5.371-4.688-11.23-14.062-17.578l-0.22-0.146
				c-7.617-5.224-12.598-9.459-14.941-12.708c-2.344-3.247-3.516-6.896-3.516-10.95c0-5.614,1.842-10.265,5.53-13.953
				c3.686-3.686,8.313-5.53,13.879-5.53c5.81,0,10.51,1.514,14.099,4.541c3.589,3.028,6.188,7.69,7.8,13.989l-8.862,2.71
				c-1.074-4.199-2.662-7.372-4.761-9.521c-2.1-2.148-4.713-3.223-7.836-3.223c-2.93,0-5.31,0.892-7.141,2.673
				c-1.831,1.783-2.747,4.09-2.747,6.921c0,4.541,4.565,9.864,13.696,15.967c3.906,2.637,6.933,4.761,9.082,6.372
				c3.467,2.637,6.03,5.566,7.69,8.789c0.609,1.183,1.485,3.318,1.87,4.614"/>
		</g>
	</g>
	<g display="inline">
		<g>
			<path fill="#FF6B84" d="M119.75,75.292l10.741-0.086c0,0-0.178-10.616-4.803-16.171c0,0-4.021-6.798-12.021-8.263l-8.417,9.813
				C105.25,60.583,119.458,55.708,119.75,75.292z"/>
			<path fill="#FF6B84" d="M98.583,68.306L84.703,84.5c0,0-0.62,17,1.797,27.729c0,0,3.583,20.938,22.083,20.438
				c0,0,21.583,2.083,22.333-28.333l-10.417,0.083c0,0,0.001,18.377-12.375,18.083c-10.542-0.25-11.5-17.054-11.5-17.054
				S94.417,83.458,98.583,68.306z"/>
		</g>
		<g>
			<path opacity="0.3" fill="#FF6B84" d="M119.75,75.292l10.741-0.086c0,0-0.178-10.616-4.803-16.171c0,0-4.021-6.798-12.021-8.263
				l-8.417,9.813C105.25,60.583,119.458,55.708,119.75,75.292z"/>
			<path opacity="0.3" fill="#FF6B84" d="M98.583,68.306L84.703,84.5c0,0-0.62,17,1.797,27.729c0,0,3.583,20.938,22.083,20.438
				c0,0,21.583,2.083,22.333-28.333l-10.417,0.083c0,0,0.001,18.377-12.375,18.083c-10.542-0.25-11.5-17.054-11.5-17.054
				S94.417,83.458,98.583,68.306z"/>
		</g>
	</g>
	<rect x="13.333" y="161" display="inline" fill="none" width="152" height="41"/>
	
		<text transform="matrix(1 0 0 1 13.333 185.9893)" fill="#FF6B84" stroke="#FF6B84" stroke-width="0.75" stroke-miterlimit="10" font-family="'HelveticaNeueLTStd-Lt'" font-size="35">Samudio</text>
	<rect x="4.406" y="196" display="inline" fill="none" width="165.716" height="43"/>
	
		<text transform="matrix(1 0 0 1 4.4063 220.9893)" fill="#FF6B84" stroke="#FF6B84" stroke-width="0.75" stroke-miterlimit="10" font-family="'HelveticaNeueLTStd-Lt'" font-size="35">Creations</text>
</g>
<g id="Capa_8">
	<rect x="4" y="6" fill="#FFFFFF" stroke="#FFFFFF" stroke-miterlimit="10" width="36" height="36"/>
	<g>
		<g>
			<path fill="#FF6B84" stroke="#FF6B84" stroke-width="2" stroke-miterlimit="10" d="M15.258,31.137
				c-1.323-0.072-2.447-0.531-3.372-1.379c-1.011-0.926-1.644-2.186-1.9-3.782l2.467-0.566c0.158,1.121,0.545,2.001,1.16,2.64
				c0.615,0.64,1.361,0.959,2.238,0.959c0.585,0,1.204-0.158,1.639-0.427"/>
		</g>
		<g>
			<path fill="#FF6B84" stroke="#FF6B84" stroke-width="2" stroke-miterlimit="10" d="M18.675,27.251
				c0.061-0.263,0.026-0.688,0.026-0.99c0-1.34-1.169-2.802-3.508-4.385l-0.055-0.037c-1.9-1.303-3.143-2.36-3.728-3.17
				c-0.585-0.81-0.877-1.72-0.877-2.732c0-1.401,0.46-2.561,1.38-3.481c0.92-0.92,2.074-1.38,3.463-1.38
				c1.449,0,2.622,0.378,3.517,1.133c0.895,0.755,1.544,1.919,1.946,3.49l-2.211,0.676c-0.268-1.047-0.664-1.839-1.188-2.375
				c-0.524-0.536-1.176-0.804-1.955-0.804c-0.731,0-1.325,0.222-1.782,0.667c-0.457,0.445-0.685,1.02-0.685,1.727
				c0,1.133,1.139,2.461,3.417,3.983c0.975,0.658,1.73,1.188,2.266,1.59c0.865,0.658,1.504,1.389,1.919,2.193
				c0.152,0.295,0.37,0.828,0.467,1.151"/>
		</g>
	</g>
	<g>
		<g>
			<path fill="#FF6B84" d="M31.724,23.372l2.68-0.022c0,0-0.044-2.649-1.198-4.034c0,0-1.003-1.696-2.999-2.062l-2.1,2.448
				C28.107,19.703,31.652,18.487,31.724,23.372z"/>
			<path fill="#FF6B84" d="M26.444,21.629l-3.463,4.04c0,0-0.155,4.241,0.448,6.918c0,0,0.894,5.223,5.509,5.099
				c0,0,5.385,0.52,5.572-7.068l-2.599,0.021c0,0,0,4.585-3.087,4.511c-2.63-0.062-2.869-4.254-2.869-4.254
				S25.404,25.409,26.444,21.629z"/>
		</g>
		<g>
			<path opacity="0.3" fill="#FF6B84" d="M31.724,23.372l2.68-0.022c0,0-0.044-2.649-1.198-4.034c0,0-1.003-1.696-2.999-2.062
				l-2.1,2.448C28.107,19.703,31.652,18.487,31.724,23.372z"/>
			<path opacity="0.3" fill="#FF6B84" d="M26.444,21.629l-3.463,4.04c0,0-0.155,4.241,0.448,6.918c0,0,0.894,5.223,5.509,5.099
				c0,0,5.385,0.52,5.572-7.068l-2.599,0.021c0,0,0,4.585-3.087,4.511c-2.63-0.062-2.869-4.254-2.869-4.254
				S25.404,25.409,26.444,21.629z"/>
		</g>
		<g>
			<path fill="none" stroke="#FF6B84" stroke-width="2" stroke-miterlimit="10" d="M31.724,23.372l2.68-0.022
				c0,0-0.044-2.649-1.198-4.034c0,0-1.003-1.696-2.999-2.062l-2.1,2.448C28.107,19.703,31.652,18.487,31.724,23.372z"/>
			<path fill="none" stroke="#FF6B84" stroke-width="2" stroke-miterlimit="10" d="M26.444,21.629l-3.463,4.04
				c0,0-0.155,4.241,0.448,6.918c0,0,0.894,5.223,5.509,5.099c0,0,5.385,0.52,5.572-7.068l-2.599,0.021c0,0,0,4.585-3.087,4.511
				c-2.63-0.062-2.869-4.254-2.869-4.254S25.404,25.409,26.444,21.629z"/>
		</g>
	</g>
	<polygon fill="#FFFFFF" stroke="#FFFFFF" stroke-width="2" stroke-miterlimit="10" points="20.737,25.125 30.5,13.649 
		32.25,15.125 21.906,27.125 	"/>
	<line fill="#FFFFFF" stroke="#FFFFFF" stroke-width="2" stroke-miterlimit="10" x1="13.278" y1="32.7" x2="23.96" y2="22.074"/>
</g>
</svg>
