<?xml version="1.0" encoding="utf-8"?>
<!-- Generator: Adobe Illustrator 17.0.1, SVG Export Plug-In . SVG Version: 6.00 Build 0)  -->
<!DOCTYPE svg PUBLIC "-//W3C//DTD SVG 1.0//EN" "http://www.w3.org/TR/2001/REC-SVG-20010904/DTD/svg10.dtd">
<svg version="1.0" xmlns="http://www.w3.org/2000/svg" xmlns:xlink="http://www.w3.org/1999/xlink" x="0px" y="0px"
	 width="164.333px" height="164px" viewBox="0 0 164.333 164" enable-background="new 0 0 164.333 164" xml:space="preserve">
<g id="Capa_3" display="none">
	<polyline display="inline" fill="none" stroke="#89C2C2" stroke-width="6" stroke-miterlimit="10" points="83.333,158 83.333,88 
		153.333,88 	"/>
	<polyline display="inline" fill="none" stroke="#89C2C2" stroke-width="6" stroke-miterlimit="10" points="222.333,174 
		222.333,244 152.333,244 	"/>
	<rect x="101" y="82.667" display="inline" fill="none" width="130.667" height="144.667"/>
	<text transform="matrix(1 0 0 1 100.9997 191.1154)" opacity="0.5" font-family="'NewsGothicBT-RomanCondensed'" font-size="150">s</text>
	<rect x="146.333" y="109.333" display="inline" fill="none" width="130.667" height="144.667"/>
	
		<text transform="matrix(1 0 0 1 146.333 217.7821)" opacity="0.5" stroke="#000000" stroke-miterlimit="10" font-family="'NewsGothicBT-RomanCondensed'" font-size="150">c</text>
	<polygon display="inline" fill="#89C2C2" stroke="#89C2C2" stroke-miterlimit="10" points="81.5,246.5 217.708,85.5 224.208,85.5 
		89.833,246.5 	"/>
</g>
<g id="Capa_4" display="none">
	<polyline display="inline" fill="none" stroke="#000000" stroke-width="6" stroke-miterlimit="10" points="312.333,151 312.333,81 
		382.333,81 	"/>
	<polyline display="inline" fill="none" stroke="#000000" stroke-width="6" stroke-miterlimit="10" points="451.333,167 
		451.333,237 381.333,237 	"/>
	<rect x="330" y="75.667" display="inline" fill="none" width="130.667" height="144.667"/>
	
		<text transform="matrix(1 0 0 1 329.9997 184.1154)" display="inline" font-family="'NewsGothicBT-RomanCondensed'" font-size="150">s</text>
	<rect x="375.333" y="102.333" display="inline" fill="none" width="130.667" height="144.667"/>
	
		<text transform="matrix(1 0 0 1 375.333 210.7821)" display="inline" stroke="#000000" stroke-miterlimit="10" font-family="'NewsGothicBT-RomanCondensed'" font-size="150">c</text>
	<polyline display="inline" points="454.333,78 316.333,240 310.333,240 310.333,240 448.75,78 	"/>
</g>
<g id="Capa_5" display="none">
	<g display="inline">
		<g>
			<path fill="#FF6B84" d="M122.554,188.906c-5.304-0.288-9.809-2.13-13.517-5.526c-4.054-3.71-6.592-8.764-7.617-15.161
				l9.888-2.271c0.634,4.493,2.185,8.02,4.651,10.583c2.465,2.563,5.457,3.845,8.972,3.845c2.344,0,4.387-0.537,6.129-1.613"/>
		</g>
		<g>
			<path fill="#FF6B84" d="M135.988,172.766c0.245-1.056,0.368-2.19,0.368-3.401c0-5.371-4.688-11.23-14.062-17.578l-0.22-0.146
				c-7.617-5.224-12.598-9.459-14.941-12.708c-2.344-3.247-3.516-6.896-3.516-10.95c0-5.614,1.842-10.265,5.53-13.953
				c3.686-3.686,8.313-5.53,13.879-5.53c5.81,0,10.51,1.514,14.099,4.541c3.589,3.028,6.188,7.69,7.8,13.989l-8.862,2.71
				c-1.074-4.199-2.662-7.372-4.761-9.521c-2.1-2.148-4.713-3.223-7.836-3.223c-2.93,0-5.31,0.892-7.141,2.673
				c-1.831,1.783-2.747,4.09-2.747,6.921c0,4.541,4.565,9.864,13.696,15.967c3.906,2.637,6.933,4.761,9.082,6.372
				c3.467,2.637,6.03,5.566,7.69,8.789c0.609,1.183,1.107,2.423,1.493,3.718"/>
		</g>
	</g>
	<g display="inline">
		<g>
			<path fill="#FF6B84" d="M192.583,165.792l10.741-0.086c0,0-0.178-10.616-4.803-16.171c0,0-4.021-6.798-12.021-8.263l-8.417,9.813
				C178.083,151.083,192.292,146.208,192.583,165.792z"/>
			<path fill="#FF6B84" d="M171.417,158.806L157.536,175c0,0-0.62,17,1.797,27.729c0,0,3.583,20.938,22.083,20.438
				c0,0,21.583,2.083,22.333-28.333l-10.417,0.083c0,0,0.001,18.377-12.375,18.083c-10.542-0.25-11.5-17.054-11.5-17.054
				S167.25,173.958,171.417,158.806z"/>
		</g>
		<g>
			<path opacity="0.3" fill="#FF6B84" d="M192.583,165.792l10.741-0.086c0,0-0.178-10.616-4.803-16.171
				c0,0-4.021-6.798-12.021-8.263l-8.417,9.813C178.083,151.083,192.292,146.208,192.583,165.792z"/>
			<path opacity="0.3" fill="#FF6B84" d="M171.417,158.806L157.536,175c0,0-0.62,17,1.797,27.729c0,0,3.583,20.938,22.083,20.438
				c0,0,21.583,2.083,22.333-28.333l-10.417,0.083c0,0,0.001,18.377-12.375,18.083c-10.542-0.25-11.5-17.054-11.5-17.054
				S167.25,173.958,171.417,158.806z"/>
		</g>
	</g>
	<polyline display="inline" fill="none" stroke="#FFFFFF" stroke-width="6" stroke-miterlimit="10" points="293.333,163 293.333,93 
		363.333,93 	"/>
	<polyline display="inline" fill="none" stroke="#FFFFFF" stroke-width="6" stroke-miterlimit="10" points="432.333,179 
		432.333,249 362.333,249 	"/>
	<polyline display="inline" fill="#FFFFFF" stroke="#FFFFFF" stroke-miterlimit="10" points="435.333,90.25 297.333,252.5 
		291.333,252.5 291.333,252.5 429.75,90.375 	"/>
	<g display="inline">
		<g>
			<path fill="#FFFFFF" d="M332.554,193.906c-5.304-0.288-9.809-2.13-13.517-5.526c-4.054-3.71-6.592-8.764-7.617-15.161
				l9.888-2.271c0.634,4.493,2.185,8.02,4.651,10.583c2.465,2.563,5.457,3.845,8.972,3.845c2.344,0,4.387-0.537,6.129-1.613"/>
		</g>
		<g>
			<path fill="#FFFFFF" d="M345.988,177.766c0.245-1.056,0.368-2.19,0.368-3.401c0-5.371-4.688-11.23-14.062-17.578l-0.22-0.146
				c-7.617-5.224-12.598-9.459-14.941-12.708c-2.344-3.247-3.516-6.896-3.516-10.95c0-5.614,1.842-10.265,5.53-13.953
				c3.686-3.686,8.313-5.53,13.879-5.53c5.81,0,10.51,1.514,14.099,4.541c3.589,3.028,6.188,7.69,7.8,13.989l-8.862,2.71
				c-1.074-4.199-2.662-7.372-4.761-9.521c-2.1-2.148-4.713-3.223-7.836-3.223c-2.93,0-5.31,0.892-7.141,2.673
				c-1.831,1.783-2.747,4.09-2.747,6.921c0,4.541,4.565,9.864,13.696,15.967c3.906,2.637,6.933,4.761,9.082,6.372
				c3.467,2.637,6.03,5.566,7.69,8.789c0.609,1.183,1.107,2.423,1.493,3.718"/>
		</g>
	</g>
	<g display="inline">
		<g>
			<path fill="#FFFFFF" d="M402.583,170.792l10.741-0.086c0,0-0.178-10.616-4.803-16.171c0,0-4.021-6.798-12.021-8.263l-8.417,9.813
				C388.083,156.083,402.292,151.208,402.583,170.792z"/>
			<path fill="#FFFFFF" d="M381.417,163.806L367.536,180c0,0-0.62,17,1.797,27.729c0,0,3.583,20.938,22.083,20.438
				c0,0,21.583,2.083,22.333-28.333l-10.417,0.083c0,0,0.001,18.377-12.375,18.083c-10.542-0.25-11.5-17.054-11.5-17.054
				S377.25,178.958,381.417,163.806z"/>
		</g>
		<g>
			<path fill="none" stroke="#FFFFFF" stroke-miterlimit="10" d="M402.583,170.792l10.741-0.086c0,0-0.178-10.616-4.803-16.171
				c0,0-4.021-6.798-12.021-8.263l-8.417,9.813C388.083,156.083,402.292,151.208,402.583,170.792z"/>
			<path fill="none" stroke="#FFFFFF" stroke-miterlimit="10" d="M381.417,163.806L367.536,180c0,0-0.62,17,1.797,27.729
				c0,0,3.583,20.938,22.083,20.438c0,0,21.583,2.083,22.333-28.333l-10.417,0.083c0,0,0.001,18.377-12.375,18.083
				c-10.542-0.25-11.5-17.054-11.5-17.054S377.25,178.958,381.417,163.806z"/>
		</g>
	</g>
	<rect x="68.333" y="261.5" display="inline" fill="none" width="152" height="41"/>
	
		<text transform="matrix(1 0 0 1 68.3333 285.5742)" display="inline" fill="#FF6B84" stroke="#FF6B84" stroke-width="0.25" stroke-miterlimit="10" font-family="'Microsoft-Yi-Baiti'" font-size="45">Samudio</text>
	<rect x="82.24" y="294.5" display="inline" fill="none" width="165.716" height="43"/>
	
		<text transform="matrix(1 0 0 1 82.2396 318.5742)" display="inline" fill="#FF6B84" stroke="#FF6B84" stroke-width="0.25" stroke-miterlimit="10" font-family="'Microsoft-Yi-Baiti'" font-size="45">Creations</text>
	<rect x="-180.667" y="261.5" display="inline" fill="none" width="152" height="41"/>
	
		<text transform="matrix(1 0 0 1 -180.6667 285.5742)" display="inline" stroke="#000000" stroke-width="0.25" stroke-miterlimit="10" font-family="'Microsoft-Yi-Baiti'" font-size="45">Samudio</text>
	<rect x="-166.76" y="294.5" display="inline" fill="none" width="165.716" height="43"/>
	
		<text transform="matrix(1 0 0 1 -166.7604 318.5742)" display="inline" stroke="#000000" stroke-width="0.25" stroke-miterlimit="10" font-family="'Microsoft-Yi-Baiti'" font-size="45">Creations</text>
</g>
<g id="Capa_6" display="none">
	<polyline display="inline" fill="none" stroke="#000000" stroke-width="6" stroke-miterlimit="10" points="-166.667,161 
		-166.667,95 -92.667,95 	"/>
	<polyline display="inline" fill="none" stroke="#000000" stroke-width="6" stroke-miterlimit="10" points="-27.667,177 
		-27.667,251 -93.667,251 	"/>
	<g display="inline">
		<g>
			<path d="M-125.446,191.906c-5.304-0.288-9.809-2.13-13.517-5.526c-4.054-3.71-6.592-8.764-7.617-15.161l9.888-2.271
				c0.634,4.493,2.185,8.02,4.651,10.583c2.465,2.563,5.457,3.845,8.972,3.845c2.344,0,4.387-0.537,6.129-1.613"/>
		</g>
		<g>
			<path d="M-112.012,175.766c0.245-1.056,0.368-2.19,0.368-3.401c0-5.371-4.688-11.23-14.062-17.578l-0.22-0.146
				c-7.617-5.224-12.598-9.459-14.941-12.708c-2.344-3.247-3.516-6.896-3.516-10.95c0-5.614,1.842-10.265,5.53-13.953
				c3.686-3.686,8.313-5.53,13.879-5.53c5.81,0,10.51,1.514,14.099,4.541c3.589,3.028,6.188,7.69,7.8,13.989l-8.862,2.71
				c-1.074-4.199-2.662-7.372-4.761-9.521c-2.1-2.148-4.713-3.223-7.836-3.223c-2.93,0-5.31,0.892-7.141,2.673
				c-1.831,1.783-2.747,4.09-2.747,6.921c0,4.541,4.565,9.864,13.696,15.967c3.906,2.637,6.933,4.761,9.082,6.372
				c3.467,2.637,6.03,5.566,7.69,8.789c0.609,1.183,1.107,2.423,1.493,3.718"/>
		</g>
	</g>
	<g display="inline">
		<g>
			<path d="M-60.417,176.792l10.741-0.086c0,0-0.178-10.616-4.803-16.171c0,0-4.021-6.798-12.021-8.263l-8.417,9.813
				C-74.917,162.083-60.708,157.208-60.417,176.792z"/>
			<path d="M-81.583,169.806L-95.464,186c0,0-0.62,17,1.797,27.729c0,0,3.583,20.938,22.083,20.438c0,0,21.583,2.083,22.333-28.333
				l-10.417,0.083c0,0,0.001,18.377-12.375,18.083c-10.542-0.25-11.5-17.054-11.5-17.054S-85.75,184.958-81.583,169.806z"/>
		</g>
		<g>
			<path opacity="0.3" d="M-60.417,176.792l10.741-0.086c0,0-0.178-10.616-4.803-16.171c0,0-4.021-6.798-12.021-8.263l-8.417,9.813
				C-74.917,162.083-60.708,157.208-60.417,176.792z"/>
			<path opacity="0.3" d="M-81.583,169.806L-95.464,186c0,0-0.62,17,1.797,27.729c0,0,3.583,20.938,22.083,20.438
				c0,0,21.583,2.083,22.333-28.333l-10.417,0.083c0,0,0.001,18.377-12.375,18.083c-10.542-0.25-11.5-17.054-11.5-17.054
				S-85.75,184.958-81.583,169.806z"/>
		</g>
	</g>
	<polygon display="inline" stroke="#000000" stroke-miterlimit="10" points="-24.792,92.5 -159.989,252.5 -168.25,252.5 
		-33.053,92.5 	"/>
</g>
<g id="Capa_7">
	<polyline fill="none" stroke="#FFFFFF" stroke-width="10" stroke-miterlimit="10" points="14.333,85 14.333,18 87.333,18 	"/>
	<polyline fill="none" stroke="#FFFFFF" stroke-width="10" stroke-miterlimit="10" points="148.333,80 148.333,152 80.333,152 	"/>
	<polygon fill="#FFFFFF" stroke="#FFFFFF" stroke-width="7" stroke-miterlimit="10" points="17.5,153.5 140.465,16.5 146.333,16.5 
		25.023,153.5 	"/>
	<g>
		<g>
			<path fill="#FFFFFF" d="M46.554,109.906c-5.304-0.288-9.809-2.13-13.517-5.526c-4.054-3.71-6.592-8.764-7.617-15.161l9.888-2.271
				c0.634,4.493,2.185,8.02,4.651,10.583c2.465,2.563,5.457,3.845,8.972,3.845c2.344,0,4.828-0.634,6.569-1.71"/>
		</g>
		<g>
			<path fill="#FFFFFF" d="M60.25,94.333c0.245-1.056,0.106-2.757,0.106-3.968c0-5.371-4.688-11.23-14.062-17.578l-0.22-0.146
				c-7.617-5.224-12.598-9.459-14.941-12.708c-2.344-3.247-3.516-6.896-3.516-10.95c0-5.614,1.842-10.265,5.53-13.953
				c3.686-3.686,8.313-5.53,13.879-5.53c5.81,0,10.51,1.514,14.099,4.541c3.589,3.028,6.188,7.69,7.8,13.989l-8.862,2.71
				c-1.074-4.199-2.662-7.372-4.761-9.521c-2.1-2.148-4.713-3.223-7.836-3.223c-2.93,0-5.31,0.892-7.141,2.673
				c-1.831,1.783-2.747,4.09-2.747,6.921c0,4.541,4.565,9.864,13.696,15.967c3.906,2.637,6.933,4.761,9.082,6.372
				c3.467,2.637,6.03,5.566,7.69,8.789c0.609,1.183,1.485,3.318,1.87,4.614"/>
		</g>
	</g>
	<g>
		<path opacity="0.3" fill="#FFFFFF" d="M124.583,82.792l10.741-0.086c0,0-0.178-10.616-4.803-16.171c0,0-4.021-6.798-12.021-8.263
			l-8.417,9.813C110.083,68.083,124.292,63.208,124.583,82.792z"/>
		<path opacity="0.3" fill="#FFFFFF" d="M103.417,75.806L89.536,92c0,0-0.62,17,1.797,27.729c0,0,3.583,20.938,22.083,20.438
			c0,0,21.583,2.083,22.333-28.333l-10.417,0.083c0,0,0.001,18.377-12.375,18.083c-10.542-0.25-11.5-17.054-11.5-17.054
			S99.25,90.958,103.417,75.806z"/>
	</g>
	<rect x="18.166" y="168.5" fill="none" width="152" height="41"/>
	
		<text transform="matrix(1 0 0 1 18.1663 193.4893)" display="none" fill="#FF6B84" stroke="#FF6B84" stroke-width="0.75" stroke-miterlimit="10" font-family="'HelveticaNeueLTStd-Lt'" font-size="35">Samudio</text>
	<rect x="9.24" y="203.5" fill="none" width="165.716" height="43"/>
	
		<text transform="matrix(1 0 0 1 9.2396 228.4893)" display="none" fill="#FF6B84" stroke="#FF6B84" stroke-width="0.75" stroke-miterlimit="10" font-family="'HelveticaNeueLTStd-Lt'" font-size="35">Creations</text>
</g>
</svg>
